<svg viewBox="0 0 19.78 19.21" xmlns="http://www.w3.org/2000/svg" data-name="Calque 1" id="Calque_1">
  <defs>
    <style>
      .cls-1 {
        fill: #262626;
        fill-rule: evenodd;
      }
    </style>
  </defs>
  <g data-name="Groupe 1357" id="Groupe_1357">
    <path d="M4.59.1H1.06L.19,13.07c-.21,3.08,2.12,5.75,5.19,5.96,0,0,0,0,0,0,.13,0,.25.01.38.01h8.25c3.09,0,5.59-2.5,5.59-5.59,0-.12,0-.25-.01-.37L18.73.1H4.59ZM4.59,1.22h-2.48l-.79,11.93c-.17,2.46,1.7,4.6,4.16,4.76.1,0,.2.01.3.01h8.25c2.47,0,4.48-1.99,4.48-4.46,0-.1,0-.21-.01-.31l-.8-11.93h-2.48v.7c0,2.93-2.38,5.31-5.31,5.31S4.6,4.86,4.6,1.92v-.7ZM14.09,1.22H5.71v.7c0,2.32,1.88,4.19,4.19,4.19s4.19-1.88,4.19-4.19v-.7Z" class="cls-1" data-name="Tracé 3298" id="Tracé_3298"></path>
  </g>
</svg>