<svg viewBox="0 0 19.6 19.66" xmlns="http://www.w3.org/2000/svg" data-name="Calque 1" id="Calque_1">
  <defs>
    <style>
      .cls-1 {
        fill: #262626;
        stroke: #262626;
        stroke-width: .2px;
      }
    </style>
  </defs>
  <g data-name="Groupe 1358" id="Groupe_1358">
    <g data-name="Groupe 1359" id="Groupe_1359">
      <path d="M7.86,14.4c1.73.03,3.4-.66,4.6-1.9,1.24-1.21,1.92-2.88,1.89-4.61.03-1.73-.65-3.4-1.89-4.61-1.2-1.24-2.87-1.93-4.6-1.9-1.73-.03-3.39.66-4.6,1.9-1.24,1.21-1.93,2.87-1.9,4.61-.03,1.73.66,3.4,1.9,4.61,1.21,1.24,2.88,1.93,4.61,1.9M7.87,15.45c-2.01.03-3.95-.77-5.35-2.21C1.07,11.84.27,9.91.3,7.9c-.03-2.01.77-3.95,2.21-5.35C3.92,1.1,5.85.3,7.86.34c2.01-.04,3.94.77,5.34,2.21,1.44,1.4,2.23,3.34,2.2,5.35,0,.92-.16,1.83-.49,2.69-.32.82-.77,1.59-1.35,2.26l5.66,5.67-.72.76-5.69-5.68c-.66.59-1.43,1.05-2.26,1.37-.86.33-1.77.5-2.69.49" class="cls-1" data-name="Tracé 3300" id="Tracé_3300"></path>
    </g>
  </g>
</svg>