<svg class="icon icon-search" version="1.2" xmlns="http://www.w3.org/2000/svg" viewBox="0 0 20 20" width="40" height="40">
	<defs>
		<clipPath clipPathUnits="userSpaceOnUse" id="cp1">
			<path d="m0.1 0.14h19.87v19.8h-19.87z"/>
		</clipPath>
	</defs>
	<style>
		.icon-search-s0 { fill: #364c84;stroke: #fffdf5 } 
		.icon-search-s1 { fill: #364c84;stroke: #fffdf5;stroke-miterlimit:10 } 
	</style>
	<g id="Groupe_528">
		<g id="Clip-Path" clip-path="url(#cp1)">
			<g>
				<g id="Groupe_176">
					<path id="Tracé_1708" fill-rule="evenodd" class="icon-search-s0" d="m15.1 16.8c-5.1 3.3-10.4 1.5-12.7-1.6-2.9-3.6-2.6-8.7 0.5-12 3.2-3.2 8.1-3.7 11.8-1.2 3.3 2.2 5.7 7.6 2.1 13.1 0.8 0.8 1.6 1.5 2.4 2.3 0.5 0.4 0.7 1.2 0.3 1.7q-0.1 0.1-0.2 0.2c-0.5 0.5-1.2 0.5-1.7 0q-0.1-0.1-0.1-0.2c-0.8-0.7-1.6-1.5-2.4-2.3m-5.7-0.7c3.2-0.2 6.5-2.1 6.7-6.5 0.1-3.5-2.5-6.4-6-6.6q-0.2 0-0.4 0c-3.5-0.3-6.5 2.4-6.7 5.9q0 0.2 0 0.4c-0.2 3.2 1.9 6.4 6.4 6.8z"/>
					<path id="Tracé_1709" fill-rule="evenodd" class="icon-search-s1" d="m15.1 16.8c-5.1 3.3-10.4 1.5-12.7-1.6-2.9-3.6-2.6-8.7 0.5-12 3.2-3.2 8.1-3.7 11.8-1.2 3.3 2.2 5.7 7.6 2.1 13.1 0.8 0.8 1.6 1.5 2.4 2.3 0.5 0.4 0.7 1.2 0.3 1.7q-0.1 0.1-0.2 0.2c-0.5 0.5-1.2 0.5-1.7 0q-0.1-0.1-0.1-0.2c-0.8-0.7-1.6-1.5-2.4-2.3zm-5.7-0.7c3.2-0.2 6.5-2.1 6.7-6.5 0.1-3.5-2.5-6.4-6-6.6q-0.2 0-0.4 0c-3.5-0.3-6.5 2.4-6.7 5.9q0 0.2 0 0.4c-0.2 3.2 1.9 6.4 6.4 6.8z"/>
				</g>
			</g>
		</g>
	</g>
</svg>