<svg class="icon icon-cart" version="1.2" xmlns="http://www.w3.org/2000/svg" viewBox="0 0 25 24" width="42" height="40">
	<style>
		.icon-cart-s0 { fill: none;stroke: #364c84;stroke-width: 1.4 } 
		.icon-cart-s1 { fill: none;stroke: #364c84;stroke-linecap: round;stroke-width: 1.4 } 
		.icon-cart-s2 { fill: #95b1ee } 
		.icon-cart-s3 { fill: none;stroke: #fffdf5 } 
	</style>
	<g>
		<g>
			<path fill-rule="evenodd" class="icon-cart-s0" d="m1.6 12.6c0.2-2.8 0.4-4.3 1-5.3 0.5-0.8 1.2-1.5 2.1-1.9 1.1-0.6 2.5-0.6 5.4-0.6 2.8 0 4.2 0 5.4 0.6 0.8 0.4 1.5 1.1 2 1.9 0.7 1 0.8 2.5 1 5.3l0.1 1c0.2 3.4 0.4 5.1-0.2 6.3-0.5 0.9-1.2 1.7-2.1 2.2-1.2 0.7-2.9 0.7-6.2 0.7-3.4 0-5.1 0-6.3-0.7-0.9-0.5-1.6-1.3-2-2.2-0.7-1.2-0.5-2.9-0.3-6.3l0.1-1z"/>
			<path fill-rule="evenodd" class="icon-cart-s0" d="m6.9 5.3v-1c0-1.7 1.4-3 3.1-3 1.6 0 3 1.3 3 3v1"/>
			<path fill-rule="evenodd" class="icon-cart-s1" d="m7.1 8.8c0.1 1.6 1.4 2.9 3 3 1.6-0.1 2.9-1.3 2.9-3"/>
		</g>
	</g>
	<g>
		<path class="icon-cart-s2" d="m18.8 15.3c-3.4 0-6.1-2.6-6.1-6 0-3.3 2.7-6 6-6 3.4 0 6 2.7 6 6 0 3.4-2.6 6-6 6z"/>
		<path class="icon-cart-s3" d="m18.8 14.8c-3.1 0-5.6-2.4-5.6-5.5 0-3 2.5-5.5 5.5-5.5 3.1 0 5.5 2.5 5.5 5.5 0 3.1-2.4 5.5-5.5 5.5z"/>
	</g>
</svg>