<svg class="icon icon-account" version="1.2" xmlns="http://www.w3.org/2000/svg" viewBox="0 0 20 24" width="40" height="48">
	<style>
		.icon-account-s0 { fill: #364c84;stroke: #364c84;stroke-width: .5 } 
		.icon-account-s1 { fill: #364c84;stroke: #364c84;stroke-miterlimit:10;stroke-width: .5 } 
	</style>
	<g>
		<g>
			<path fill-rule="evenodd" class="icon-account-s0" d="m4.7 6.5c0-2.9 2.4-5.3 5.3-5.3 3 0 5.4 2.4 5.4 5.3 0 3-2.4 5.4-5.4 5.4-2.9 0-5.3-2.4-5.3-5.4zm0.7 0c0 2.6 2.1 4.7 4.6 4.7 2.6 0 4.7-2.1 4.7-4.7 0-2.5-2.1-4.6-4.7-4.6-2.5 0-4.6 2.1-4.6 4.6z"/>
			<path fill-rule="evenodd" class="icon-account-s1" d="m4.7 6.5c0-2.9 2.4-5.3 5.3-5.3 3 0 5.4 2.4 5.4 5.3 0 3-2.4 5.4-5.4 5.4-2.9 0-5.3-2.4-5.3-5.4zm0.7 0c0 2.6 2.1 4.7 4.6 4.7 2.6 0 4.7-2.1 4.7-4.7 0-2.5-2.1-4.6-4.7-4.6-2.5 0-4.6 2.1-4.6 4.6z"/>
			<path fill-rule="evenodd" class="icon-account-s0" d="m1.4 21.1q-0.2-0.1-0.2-0.3v-1.4c0.1-1.8 1.1-3.6 2.6-4.7 1.8-1.3 4-2.1 6.2-2 2.3-0.1 4.6 0.7 6.4 2 1.5 1.2 2.4 2.9 2.5 4.7v1.4q-0.1 0.2-0.2 0.3c-0.1 0.1-2.7 1.8-8.7 1.8-5.9 0-8.5-1.7-8.6-1.8m0.6-0.5c0.6 0.4 3.1 1.6 8 1.6 5 0 7.5-1.2 8.1-1.6v-1.2c-0.1-1.6-0.9-3.1-2.2-4.1-1.7-1.3-3.7-1.9-5.9-1.9-2.1 0-4.1 0.7-5.8 1.9-1.3 1-2.2 2.5-2.2 4.1 0 0 0 1.2 0 1.2z"/>
			<path fill-rule="evenodd" class="icon-account-s1" d="m1.4 21.1q-0.2-0.1-0.2-0.3v-1.4c0.1-1.8 1.1-3.6 2.6-4.7 1.8-1.3 4-2.1 6.2-2 2.3-0.1 4.6 0.7 6.4 2 1.5 1.2 2.4 2.9 2.5 4.7v1.4q-0.1 0.2-0.2 0.3c-0.1 0.1-2.7 1.8-8.7 1.8-5.9 0-8.5-1.7-8.6-1.8zm0.6-0.5c0.6 0.3 3.1 1.6 8 1.6 5 0 7.5-1.3 8.1-1.6v-1.2c-0.1-1.6-0.9-3.1-2.2-4.1-1.7-1.3-3.7-1.9-5.9-1.9-2.1 0-4.1 0.6-5.8 1.9-1.3 1-2.2 2.5-2.2 4.1 0 0 0 1.2 0 1.2z"/>
		</g>
	</g>
</svg>